<?xml version="1.0" encoding="UTF-8" standalone="no"?><!DOCTYPE svg PUBLIC "-//W3C//DTD SVG 1.1//EN" "http://www.w3.org/Graphics/SVG/1.1/DTD/svg11.dtd"><svg width="100%" height="100%" viewBox="0 0 659 748" version="1.1" xmlns="http://www.w3.org/2000/svg" xmlns:xlink="http://www.w3.org/1999/xlink" xml:space="preserve" xmlns:serif="http://www.serif.com/" style="fill-rule:evenodd;clip-rule:evenodd;stroke-miterlimit:1.5;"><path d="M328.155,2.237l312.21,180.255l0,360.508l-312.21,180.255l-312.209,-180.255l-0,-360.508l312.209,-180.255Z" style="fill:#fff;"/><path d="M15.946,453.365l624.419,-0" style="fill:none;stroke:#000;stroke-width:1.04px;"/><path d="M15.946,532.331l624.419,0" style="fill:none;stroke:#000;stroke-width:1.04px;"/><path d="M143.571,627.87l369.168,0" style="fill:none;stroke:#000;stroke-width:1.04px;"/><path d="M15.946,370.746l624.419,-0" style="fill:none;stroke:#000;stroke-width:1.04px;"/><path d="M23.299,285.858l624.42,-0" style="fill:none;stroke:#000;stroke-width:1.04px;"/><path d="M26.581,200.36l624.42,0" style="fill:none;stroke:#000;stroke-width:1.04px;"/><path d="M139.581,116.822l378.42,-0" style="fill:none;stroke:#000;stroke-width:1.04px;"/><path d="M24.25,503.623c-0,-0 48.925,-24.893 67.75,-118.623c18.825,-93.73 44.481,-331.182 76,-90c15.851,121.293 47.658,190.186 94.606,191.438" style="fill:#369acd;stroke:#000;stroke-width:2.08px;stroke-linecap:round;"/><path d="M307.423,486.157c22.702,-1.12 26.716,-5.838 36.577,-22.157c14.673,-24.281 36.851,-189.158 58,-103c21.149,86.158 25.811,143.582 53,143" style="fill:#ee6a50;stroke:#000;stroke-width:2.08px;stroke-linecap:round;"/><path d="M521.521,504c14.241,-0.84 23.635,-16.853 29.479,-38c8.679,-31.406 22.749,-80.645 47,-12c20.352,57.609 19.783,49.257 42.365,50" style="fill:#3eced0;stroke:#000;stroke-width:2.08px;stroke-linecap:round;"/><path d="M15.946,504c50.565,0 81.941,-65.94 119.054,-66c37.113,-0.06 37.602,47.67 131.434,48.266l40.989,-0.109c0,0 30.364,-0.316 63.577,-12.157c35.388,-12.616 49.979,29.719 84,30c34.021,0.282 10,0 10,0c-0,0 14.753,0.233 46,0.527c31.247,0.295 64.492,-20.012 82,-10.527c18.322,9.926 31.702,10.581 47.365,10c-0.016,7.969 0,40 0,40l-624.419,0" style="fill:#8b7d6b;stroke:#000;stroke-width:2.08px;stroke-linecap:round;"/><path d="M328.155,10.237l312.21,180.255l0,360.508l-312.21,180.255l-312.209,-180.255l-0,-360.508l312.209,-180.255Z" style="fill:none;stroke:#3eb5d0;stroke-width:22.92px;stroke-linecap:round;"/><path d="M279.496,271.59c0,4.2 -0.719,7.856 -2.158,10.967c-1.439,3.111 -3.422,5.697 -5.95,7.758c-2.528,2.061 -5.522,3.578 -8.983,4.55c-3.461,0.973 -7.253,1.459 -11.375,1.459c-2.8,-0 -5.425,-0.214 -7.875,-0.642c-2.45,-0.428 -4.706,-0.992 -6.767,-1.692c-2.061,-0.7 -3.869,-1.458 -5.425,-2.275c-1.555,-0.816 -2.8,-1.614 -3.733,-2.391l5.833,-10.734c1.867,1.245 4.103,2.431 6.708,3.559c2.606,1.127 5.892,1.691 9.859,1.691c4.9,0 8.633,-1.127 11.2,-3.383c2.566,-2.256 3.85,-5.483 3.85,-9.683l-0,-3.734l-0.467,0c-1.4,1.867 -3.461,3.248 -6.183,4.142c-2.722,0.894 -5.872,1.342 -9.45,1.342c-3.734,-0 -7.175,-0.584 -10.325,-1.75c-3.15,-1.167 -5.892,-2.936 -8.225,-5.309c-2.334,-2.372 -4.142,-5.386 -5.425,-9.041c-1.284,-3.656 -1.925,-7.934 -1.925,-12.834c-0,-5.133 0.758,-9.683 2.275,-13.65c1.516,-3.966 3.655,-7.291 6.416,-9.975c2.762,-2.683 6.067,-4.705 9.917,-6.066c3.85,-1.361 8.147,-2.042 12.892,-2.042c2.489,-0 4.978,0.097 7.466,0.292c2.489,0.194 4.842,0.447 7.059,0.758c2.216,0.311 4.258,0.681 6.125,1.108c1.866,0.428 3.422,0.875 4.666,1.342l0,56.233Zm-28,-11.2c2.956,0 5.62,-0.661 7.992,-1.983c2.372,-1.322 3.986,-3.306 4.842,-5.95l-0,-26.25c-1.089,-0.467 -2.625,-0.836 -4.609,-1.108c-1.983,-0.273 -3.869,-0.409 -5.658,-0.409c-2.178,0 -4.219,0.35 -6.125,1.05c-1.905,0.7 -3.578,1.809 -5.017,3.325c-1.438,1.517 -2.566,3.423 -3.383,5.717c-0.817,2.294 -1.225,5.036 -1.225,8.225c0,2.8 0.35,5.289 1.05,7.467c0.7,2.177 1.672,4.005 2.917,5.483c1.244,1.478 2.644,2.586 4.2,3.325c1.555,0.739 3.228,1.108 5.016,1.108Z" style="fill:#1e637c;fill-rule:nonzero;"/><path d="M292.213,258.757l14.467,-0l-0,-32.667l-14.467,0l0,-12.833l26.25,-0l1.75,7.7l0.467,-0c2.178,-2.567 4.666,-4.706 7.466,-6.417c2.8,-1.711 6.067,-2.566 9.8,-2.566c4.667,-0 8.342,1.711 11.025,5.133c2.684,3.422 4.025,9.139 4.025,17.15l-13.65,-0c0,-2.8 -0.408,-4.842 -1.225,-6.125c-0.816,-1.283 -2.119,-1.925 -3.908,-1.925c-3.111,-0 -5.619,0.778 -7.525,2.333c-1.905,1.556 -3.519,3.345 -4.842,5.367l0,24.85l25.317,-0l0,12.833l-54.95,0l0,-12.833Z" style="fill:#1e637c;fill-rule:nonzero;"/><path d="M398.613,227.257l8.75,25.55l0.583,-0l1.05,-10.033l4.784,-29.517l13.65,-0l-11.784,58.333l-15.283,0l-6.533,-23.1l-0.584,0l-7.35,23.1l-15.75,0l-12.25,-58.333l15.167,-0l5.717,32.317l0.933,7.233l0.583,-0l8.634,-25.55l9.683,-0Z" style="fill:#1e637c;fill-rule:nonzero;"/><path d="M438.163,217.224c3.111,-1.4 6.708,-2.606 10.792,-3.617c4.083,-1.011 8.925,-1.517 14.525,-1.517c4.044,0 7.486,0.486 10.325,1.459c2.839,0.972 5.133,2.352 6.883,4.141c1.75,1.789 3.014,3.928 3.792,6.417c0.778,2.489 1.166,5.289 1.166,8.4c0,3.967 -0.136,7.35 -0.408,10.15c-0.272,2.8 -0.408,5.289 -0.408,7.467c-0,1.633 0.078,3.461 0.233,5.483c0.156,1.089 0.272,2.139 0.35,3.15l7.583,-0l0,12.833l-19.366,0l-1.517,-7.933l-0.583,-0c-1.556,2.411 -3.772,4.492 -6.65,6.242c-2.878,1.75 -6.767,2.625 -11.667,2.625c-5.833,-0 -10.461,-1.556 -13.883,-4.667c-3.422,-3.111 -5.134,-7.233 -5.134,-12.367c0,-3.266 0.603,-6.086 1.809,-8.458c1.205,-2.372 2.955,-4.317 5.25,-5.833c2.294,-1.517 5.055,-2.645 8.283,-3.384c3.228,-0.739 6.825,-1.108 10.792,-1.108c1.4,-0 2.878,0.078 4.433,0.233c1.556,0.156 3.461,0.311 5.717,0.467c0.155,-0.778 0.233,-1.556 0.233,-2.333l0,-2.217c0,-2.956 -0.855,-5.075 -2.567,-6.358c-1.711,-1.284 -4.238,-1.925 -7.583,-1.925c-3.967,-0 -7.544,0.505 -10.733,1.516c-3.189,1.011 -5.872,2.023 -8.05,3.034l-3.617,-11.9Zm19.95,42.816c3.733,0 6.533,-0.68 8.4,-2.041c1.867,-1.361 3.228,-2.82 4.083,-4.375l0,-7c-0.777,-0.156 -1.944,-0.331 -3.5,-0.525c-1.555,-0.195 -3.227,-0.292 -5.016,-0.292c-1.478,-0 -2.956,0.136 -4.434,0.408c-1.477,0.273 -2.8,0.7 -3.966,1.284c-1.167,0.583 -2.1,1.341 -2.8,2.275c-0.7,0.933 -1.05,2.061 -1.05,3.383c-0,2.178 0.641,3.869 1.925,5.075c1.283,1.206 3.403,1.808 6.358,1.808Z" style="fill:#1e637c;fill-rule:nonzero;"/><path d="M511.196,226.09l-11.55,0l0,-12.833l11.55,-0l0,-13.3l15.167,-4.317l0,17.617l30.567,-0l-0,12.833l-30.567,0l0,16.684c0,5.989 1.128,10.325 3.383,13.008c2.256,2.683 5.406,4.025 9.45,4.025c2.1,-0 4.006,-0.253 5.717,-0.758c1.711,-0.506 3.247,-1.148 4.608,-1.925c1.362,-0.778 2.606,-1.634 3.734,-2.567c1.128,-0.933 2.158,-1.789 3.091,-2.567l7,10.5c-1.322,1.556 -2.975,2.975 -4.958,4.259c-1.983,1.283 -4.122,2.411 -6.417,3.383c-2.294,0.972 -4.686,1.731 -7.175,2.275c-2.488,0.544 -4.938,0.817 -7.35,0.817c-8.711,-0 -15.263,-2.431 -19.658,-7.292c-4.394,-4.861 -6.592,-12.581 -6.592,-23.158l0,-16.684Z" style="fill:#1e637c;fill-rule:nonzero;"/></svg>